<svg width="16" height="11" viewBox="0 0 16 11" fill="none" xmlns="http://www.w3.org/2000/svg">
    <path d="M14.7049 0.685019C14.612 0.591291 14.5014 0.516897 14.3795 0.466128C14.2577 0.415359 14.127 0.389221 13.9949 0.389221C13.8629 0.389221 13.7322 0.415359 13.6104 0.466128C13.4885 0.516897 13.3779 0.591291 13.2849 0.685019L5.83495 8.14502L2.70494 5.00502C2.60842 4.91178 2.49448 4.83847 2.36963 4.78926C2.24477 4.74006 2.11145 4.71593 1.97727 4.71825C1.84309 4.72057 1.71068 4.7493 1.5876 4.80279C1.46452 4.85629 1.35318 4.9335 1.25994 5.03002C1.16671 5.12654 1.09339 5.24048 1.04419 5.36534C0.994984 5.49019 0.970854 5.62352 0.973175 5.7577C0.975497 5.89188 1.00422 6.02429 1.05772 6.14737C1.11121 6.27044 1.18842 6.38178 1.28494 6.47502L5.12495 10.315C5.21791 10.4087 5.32851 10.4831 5.45037 10.5339C5.57223 10.5847 5.70293 10.6108 5.83495 10.6108C5.96696 10.6108 6.09766 10.5847 6.21952 10.5339C6.34138 10.4831 6.45198 10.4087 6.54495 10.315L14.7049 2.15502C14.8064 2.06138 14.8875 1.94773 14.9429 1.82123C14.9983 1.69473 15.0269 1.55812 15.0269 1.42002C15.0269 1.28192 14.9983 1.14531 14.9429 1.01881C14.8875 0.892314 14.8064 0.778662 14.7049 0.685019V0.685019Z" fill="url(#paint0_linear_2750_22332)"/>
    <defs>
        <linearGradient id="paint0_linear_2750_22332" x1="0.973022" y1="5.50002" x2="15.0269" y2="5.50002" gradientUnits="userSpaceOnUse">
            <stop stop-color="#447BBA"/>
            <stop offset="1" stop-color="#7C4894" stop-opacity="0.8"/>
        </linearGradient>
    </defs>
</svg>
